<svg id="SvgjsSvg1059" xmlns="http://www.w3.org/2000/svg" version="1.1" xmlns:xlink="http://www.w3.org/1999/xlink" xmlns:svgjs="http://svgjs.com/svgjs" width="9" height="12" viewBox="0 0 9 12"><title>Arrow copy 10</title><desc>Created with Avocode.</desc><defs id="SvgjsDefs1060"></defs><path id="SvgjsPath1061" d="M29.9874 737.467L33.7205 741.084C34.095800000000004 741.4449999999999 34.095800000000004 742.0279999999999 33.7205 742.3889999999999L33.380700000000004 742.7139999999999C33.0054 743.074 32.397400000000005 743.074 32.0219 742.7139999999999L27.628100000000003 738.463C27.620400000000004 738.457 27.612200000000005 738.4549999999999 27.605600000000003 738.448L27.266000000000002 738.1229999999999C27.0771 737.9419999999999 26.9843 737.7049999999999 26.985300000000002 737.467C26.9843 737.231 27.0771 736.992 27.266000000000002 736.812L27.605600000000003 736.486C27.6122 736.48 27.6216 736.478 27.628100000000003 736.472L32.0219 732.255C32.397400000000005 731.895 33.0054 731.895 33.380700000000004 732.255L33.7205 732.58C34.095800000000004 732.941 34.095800000000004 733.5250000000001 33.7205 733.885Z " fill="#ffffff" fill-opacity="1" transform="matrix(1,0,0,1,-26,-731)"></path></svg>