<?xml version="1.0" encoding="UTF-8"?><!DOCTYPE svg PUBLIC "-//W3C//DTD SVG 1.1//EN" "http://www.w3.org/Graphics/SVG/1.1/DTD/svg11.dtd"><svg xmlns="http://www.w3.org/2000/svg"><symbol id="icon-alert" viewBox="0 0 21 21">
    <title>
        alert transparent
    </title>
    <path d="M10.5 0C16.299 0 21 4.7 21 10.5S16.299 21 10.5 21 0 16.3 0 10.5 4.701 0 10.5 0zM2.333 10.5c0 4.51 3.657 8.17 8.167 8.17s8.167-3.66 8.167-8.17S15.01 2.33 10.5 2.33 2.333 5.99 2.333 10.5zM10.5 5.44c.644 0 1.167.53 1.167 1.17v3.94c0 .64-.523 1.17-1.167 1.17s-1.167-.53-1.167-1.17V6.61c0-.64.523-1.17 1.167-1.17zm0 7.78c.644 0 1.167.52 1.167 1.17 0 .64-.523 1.17-1.167 1.17s-1.167-.53-1.167-1.17c0-.65.523-1.17 1.167-1.17z"/>
</symbol><symbol id="icon-ball" viewBox="0 0 22 22">
    <title>
        Shape 1
    </title>
    <path d="M19.911 16.775v-.001a10.51 10.51 0 0 0 .707-11.446v-.001A10.488 10.488 0 0 0 7.762.701 10.487 10.487 0 0 0 1.63 6.927c-.35.966-.558 1.972-.616 2.992a10.572 10.572 0 0 0 1.68 6.307 10.405 10.405 0 0 0 5.218 4.145c2.164.785 4.468.843 6.662.167a10.575 10.575 0 0 0 5.337-3.763zm-9.857-2.309L7.286 10.43l3.006-3.832 4.63 1.681-.003.112-.145 4.742zM14.6 1.952a9.105 9.105 0 0 1 4.41 3.42l-3.507 1.639-4.915-1.784-1.619-3.465a9.1 9.1 0 0 1 5.631.19zM2.39 10.715l3.623.314 2.977 4.34-1.247 3.433c-3.166-1.437-5.27-4.616-5.352-8.087zm.547-3.314A9.098 9.098 0 0 1 7.662 2.25l1.596 3.415-3.122 3.98-3.671-.319a9.168 9.168 0 0 1 .471-1.925zm17.113 6.213a9.144 9.144 0 0 1-.87 1.776l-3.019-2.11.156-5.115 3.39-1.584a9.094 9.094 0 0 1 .343 7.033zm-4.694.799l2.99 2.09c-2.29 2.613-5.944 3.703-9.296 2.773l1.246-3.433z"/>
</symbol><symbol id="icon-calendar" viewBox="0 0 21 21">
    <title>
        Forma 1
    </title>
    <path d="M20.36 1.23h-4.197V.619a.63.63 0 0 0-.64-.619.63.63 0 0 0-.641.619v.611H11.14V.619A.63.63 0 0 0 10.5 0a.63.63 0 0 0-.64.619v.611H6.276V.619A.63.63 0 0 0 5.637 0a.63.63 0 0 0-.641.619v.611H.64a.63.63 0 0 0-.64.619v13.987a.63.63 0 0 0 .64.619h3.931C5.201 19.056 7.62 21 10.5 21c2.88 0 5.299-1.944 5.928-4.545h3.931a.63.63 0 0 0 .64-.619V1.849a.63.63 0 0 0-.64-.619zm-3.773 13.987c0-.035.003-.069.003-.103 0-3.246-2.732-5.887-6.09-5.887-3.358 0-6.09 2.641-6.09 5.887l.003.103H1.28v-8.98h18.438v8.98zM10.5 19.762c-2.652 0-4.81-2.085-4.81-4.648 0-2.563 2.158-4.648 4.81-4.648 2.652 0 4.809 2.085 4.809 4.648 0 2.563-2.157 4.648-4.81 4.648zM4.996 2.468v.559a.63.63 0 0 0 .64.619.63.63 0 0 0 .64-.619v-.559H9.86v.559a.63.63 0 0 0 .64.619.63.63 0 0 0 .641-.619v-.559h3.742v.559a.63.63 0 0 0 .64.619.63.63 0 0 0 .641-.619v-.559h3.556v2.531H1.281V2.468zM11.14 15.27v-2.995a.63.63 0 0 0-.64-.619.63.63 0 0 0-.64.619v3.251c0 .165.067.322.187.438l1.472 1.423a.65.65 0 0 0 .453.181.65.65 0 0 0 .453-.181.604.604 0 0 0 0-.875z"/>
</symbol><symbol id="icon-caret-d" viewBox="0 0 10.7 6.9">
    <style>
        .st0{fill:#999}
    </style>
    <title>
        Arrow copy 11
    </title>
    <path id="SvgjsPath1052" class="st0" d="M5.3 3.9L8.8.3c.4-.4.9-.4 1.3 0l.3.3c.4.4.4 1 0 1.3L6.3 6.2l-.3.4c-.2.2-.4.3-.7.3-.2 0-.5-.1-.6-.3l-.3-.3L.3 1.9C-.1 1.5-.1.9.3.6L.6.3c.4-.4.9-.4 1.3 0l3.4 3.6z"/>
</symbol><symbol id="icon-caret-l" viewBox="0 0 9 12">
    <title>
        Arrow copy 10
    </title>
    <path d="M3.987 6.467l3.734 3.617a.897.897 0 0 1 0 1.305l-.34.325a.99.99 0 0 1-1.36 0L1.629 7.463c-.008-.006-.016-.008-.022-.015l-.34-.325a.898.898 0 0 1-.28-.656.897.897 0 0 1 .28-.655l.34-.326c.006-.006.016-.008.022-.014l4.394-4.217a.99.99 0 0 1 1.359 0l.34.325a.897.897 0 0 1 0 1.305z"/>
</symbol><symbol id="icon-caret-t" viewBox="0 0 10.7 6.9">
    <style>
        .st0{fill:#fff}
    </style>
    <title>
        Arrow copy 3
    </title>
    <path id="SvgjsPath1055" class="st0" d="M5.3 2.9l3.5 3.6c.4.5 1 .5 1.3.1l.3-.3c.4-.4.4-1 0-1.3L6.3.6 6 .3C5.8.1 5.6 0 5.3 0c-.2 0-.4.1-.6.3l-.3.3L.3 4.9c-.4.4-.4 1 0 1.3l.3.3c.3.5.9.5 1.3.1l3.4-3.7z"/>
</symbol><symbol id="icon-close" viewBox="-289 382 29 29">
    <style>
        .st0{fill:#666}
    </style>
    <path id="SvgjsPath1007" class="st0" d="M-262.8 382.1l2.8 2.8-11.6 11.6 11.7 11.7-2.8 2.8-11.7-11.7-11.6 11.6-2.8-2.8 11.6-11.6-11.7-11.7 2.8-2.8 11.7 11.7 11.6-11.6z"/>
</symbol><symbol id="icon-date" viewBox="0 0 18 18">
    <title>
        Forma 1
    </title>
    <path d="M17.31 1.238h-4.85v-.56A.684.684 0 0 0 11.77 0a.684.684 0 0 0-.69.678v.56H6.92v-.56A.684.684 0 0 0 6.23 0a.684.684 0 0 0-.69.678v.56H.69a.685.685 0 0 0-.69.678v15.406c0 .375.31.678.69.678h16.62c.38 0 .69-.303.69-.678V1.916a.685.685 0 0 0-.69-.678zM1.38 6.671H16.62v9.974H1.38zM5.54 2.594v1.049c0 .374.309.678.69.678.382 0 .69-.304.69-.678V2.594h4.16v1.049c0 .374.308.678.69.678.381 0 .69-.304.69-.678V2.594h4.159v2.722H1.38V2.594zm1.342 5.78a.684.684 0 0 0-.69.678v5.212c0 .374.309.678.69.678.382 0 .69-.304.69-.678V9.052a.684.684 0 0 0-.69-.678zm5.525 0H9.644a.684.684 0 0 0-.69.678c0 .374.309.677.69.677h1.625l-2.237 4.222a.672.672 0 0 0 .294.914.698.698 0 0 0 .931-.288l2.762-5.213a.666.666 0 0 0-.022-.664.694.694 0 0 0-.59-.326z"/>
</symbol><symbol id="icon-facebook" viewBox="0 0 10 19">
    <title>
        facebook
    </title>
    <path d="M9.766.157v2.946H8.014c-.64 0-1.071.134-1.295.402-.223.268-.335.67-.335 1.205v2.11h3.27l-.435 3.303H6.384v8.471H2.97v-8.47H.123V6.82H2.97V4.387c0-1.384.387-2.457 1.161-3.22C4.904.404 5.934.023 7.222.023c1.093 0 1.941.045 2.544.134z" fill-rule="evenodd"/>
</symbol><symbol id="icon-filter" viewBox="0 0 18 15">
    <title>
        Forma 1
    </title>
    <path d="M16.954.283A.484.484 0 0 0 16.515 0H1.485a.484.484 0 0 0-.439.283.499.499 0 0 0 .065.524l5.778 7.128v6.572c0 .17.086.329.229.419a.482.482 0 0 0 .471.022l3.246-1.636a.495.495 0 0 0 .27-.441l.006-4.936L16.889.807a.499.499 0 0 0 .065-.524zm-6.702 7.161a.504.504 0 0 0-.111.313l-.006 4.807-2.276 1.148V7.757a.5.5 0 0 0-.111-.313L2.513.987h12.974z"/>
</symbol><symbol id="icon-list" viewBox="0 0 18 17">
    <title>
        Forma 1
    </title>
    <path d="M17.292 0H.708A.707.707 0 0 0 0 .708v15.584c0 .392.316.708.708.708h16.584a.707.707 0 0 0 .708-.708V.708A.707.707 0 0 0 17.292 0zM1.415 15.584V1.415h15.166v14.169zm2.853-9.925h9.596a.706.706 0 0 0 .708-.708.706.706 0 0 0-.707-.708H4.268a.71.71 0 0 0 0 1.416zm0 3.549h9.596a.706.706 0 0 0 .708-.708.706.706 0 0 0-.707-.708H4.268a.707.707 0 0 0-.707.708c0 .392.315.708.707.708zm0 3.552h9.596a.706.706 0 1 0 0-1.415H4.268a.707.707 0 1 0 0 1.415z"/>
</symbol><symbol id="icon-logout" viewBox="0 0 15 18">
    <title>
        Shape 1
    </title>
    <path d="M4.08 13.397a.827.827 0 0 0 1.163 0 .815.815 0 0 0 0-1.157L2.81 9.818h8.078A.82.82 0 0 0 11.71 9a.82.82 0 0 0-.823-.818H2.81L5.243 5.76a.815.815 0 0 0-.582-1.396c-.21 0-.42.08-.581.239L.24 8.421a.816.816 0 0 0 0 1.158zM7.049 0a.82.82 0 0 0-.823.818.82.82 0 0 0 .823.818h6.306v14.728H7.049a.82.82 0 0 0-.823.818.82.82 0 0 0 .823.818h7.128a.82.82 0 0 0 .823-.818V.818A.82.82 0 0 0 14.177 0z"/>
</symbol><symbol id="icon-message" viewBox="0 0 21 21">
    <title>
        Forma 1
    </title>
    <path d="M16.76 21h-.25a.594.594 0 0 1-.426-.182l-5.833-6.049H.6a.608.608 0 0 1-.6-.618V.62A.61.61 0 0 1 .6 0h19.8c.332 0 .6.278.6.62v13.531a.61.61 0 0 1-.6.619h-3.04v5.612a.609.609 0 0 1-.6.618zM1.2 13.532h9.3c.16 0 .312.066.425.182l5.235 5.428v-4.991a.61.61 0 0 1 .6-.619h3.04V1.237H1.2zm16.127-7.501H3.753a.61.61 0 0 1-.6-.618.61.61 0 0 1 .6-.62h13.575c.331 0 .6.277.6.62a.609.609 0 0 1-.6.618zm-.057 4.233H3.696a.61.61 0 0 1-.6-.619.61.61 0 0 1 .6-.619H17.27c.331 0 .6.277.6.619a.61.61 0 0 1-.6.619z"/>
</symbol><symbol id="icon-minus" viewBox="0 0 11 3">
    <title>
        Rectangle 3
    </title>
    <path d="M0 3V0h11v3z"/>
</symbol><symbol id="icon-more" viewBox="-299 391 12 13">
    <style>
        .st0{fill:#666}
    </style>
    <path id="SvgjsPath1007" class="st0" d="M-293 392.6v-1.5c0-.1.1-.1.2-.1l3.3 2.3c.1 0 .1.1 0 .2l-3.3 2.3c-.1.1-.2 0-.2-.1v-1.5c-2.5 0-4.5 2-4.3 4.4.1 2 1.9 3.7 4.1 3.8 2.3.1 4.3-1.4 4.6-3.5.1-.4.4-.7.8-.7.5 0 .9.4.8.9-.5 2.9-3.3 5.1-6.7 4.8-2.8-.3-5-2.4-5.3-5-.4-3.3 2.4-6.3 6-6.3z"/>
</symbol><symbol id="icon-player" viewBox="0 0 84 66">
    <title>
        Forma 1
    </title>
    <path d="M82.23 7.55L52.772 0H52.113c-1.153 0-2.093.733-2.266 1.827-.238 1.503-1.078 2.71-2.513 3.734-1.408 1.005-3.007 1.502-4.82 1.502-1.813 0-3.42-.487-4.862-1.502-1.441-1.015-2.252-2.235-2.513-3.734C34.947.728 33.985 0 32.873 0h-.742L2.674 7.55c-1.2.308-1.913 1.577-1.607 2.76l4.12 15.952c.259 1.003 1.194 1.665 2.307 1.665H18.37v35.841c0 1.258.988 2.232 2.266 2.232h43.63c1.277 0 2.349-.974 2.349-2.232V27.927h10.876c1.03 0 1.971-.702 2.225-1.665l4.202-15.952c.311-1.182-.412-2.433-1.689-2.76z"/>
</symbol><symbol id="icon-plus" viewBox="0 0 11 11">
    <title>
        Rectangle 3 copy 3
    </title>
    <path d="M0 7V4h4V0h3v4h4v3H7v4H4V7z"/>
</symbol><symbol id="icon-report" viewBox="0 0 21 28">
    <title>
        Forma 1
    </title>
    <path d="M16.914 4.765V2.38h-3.501V0H7.582v2.385H4.08v2.386H0V28h21V4.765zm2.915 22.039H1.165V5.955h2.916v2.38h12.833v-2.38h2.915zM5.246 3.575h10.497v3.576H5.246zM18 13v-1H6v1zm0 5v-1H6v1zM12.248 1.19v1.19H8.747V1.19zM5 13v-1H4v1zm0 5v-1H4v1zm0 5v-1H4v1zm13 0v-1H6v1z"/>
</symbol><symbol id="icon-search" viewBox="0 0 16 15">
    <title>
        Forma 1
    </title>
    <path d="M15.766 13.662L12.069 9.95a5.913 5.913 0 0 0 1.471-3.894C13.54 2.717 10.727 0 7.27 0 3.812 0 .999 2.717.999 6.056c0 3.34 2.813 6.056 6.271 6.056a6.358 6.358 0 0 0 3.592-1.095l3.725 3.741a.826.826 0 0 0 .589.242.825.825 0 0 0 .567-.221.772.772 0 0 0 .023-1.117zM7.27 1.58c2.555 0 4.635 2.008 4.635 4.476 0 2.469-2.08 4.477-4.635 4.477-2.556 0-4.636-2.008-4.636-4.477 0-2.468 2.08-4.476 4.636-4.476z"/>
</symbol><symbol id="icon-settings" viewBox="0 0 22 21">
    <title>
        Shape 1
    </title>
    <path d="M19.925 8.296l-1.473-.25a8.35 8.35 0 0 0-.593-1.431l.869-1.215a1.293 1.293 0 0 0-.14-1.671L17.28 2.422a1.287 1.287 0 0 0-1.667-.141l-1.22.869a8.276 8.276 0 0 0-1.482-.61l-.246-1.456A1.296 1.296 0 0 0 11.385 0H9.536c-.636 0-1.175.456-1.28 1.084l-.255 1.491c-.492.154-.97.355-1.426.601L5.37 2.308a1.288 1.288 0 0 0-.755-.242 1.28 1.28 0 0 0-.917.382L2.387 3.755a1.3 1.3 0 0 0-.14 1.672l.877 1.232a8.132 8.132 0 0 0-.584 1.435l-1.456.245A1.297 1.297 0 0 0 0 9.62v1.847c0 .636.456 1.176 1.084 1.281l1.491.255c.154.491.356.969.601 1.425l-.864 1.202a1.294 1.294 0 0 0 .14 1.672l1.308 1.307a1.287 1.287 0 0 0 1.667.14l1.232-.877c.443.233.908.421 1.387.57l.245 1.474A1.296 1.296 0 0 0 9.572 21h1.852c.636 0 1.175-.456 1.28-1.084l.25-1.474a8.305 8.305 0 0 0 1.43-.592l1.216.869c.22.158.482.241.755.241.346 0 .67-.136.916-.382l1.308-1.307a1.298 1.298 0 0 0 .14-1.671l-.869-1.22c.242-.46.443-.939.593-1.43l1.474-.246A1.295 1.295 0 0 0 21 11.423V9.577a1.28 1.28 0 0 0-1.075-1.281zm-.1 3.127c0 .058-.04.106-.097.115l-1.843.307a.588.588 0 0 0-.473.434 7.02 7.02 0 0 1-.764 1.838.594.594 0 0 0 .027.645l1.083 1.527a.12.12 0 0 1-.013.149l-1.307 1.307a.11.11 0 0 1-.083.035.109.109 0 0 1-.066-.022l-1.523-1.083a.594.594 0 0 0-.645-.027 7.04 7.04 0 0 1-1.838.764.581.581 0 0 0-.434.473l-.311 1.843a.113.113 0 0 1-.114.096H9.577a.113.113 0 0 1-.114-.096l-.308-1.843a.589.589 0 0 0-.434-.473 7.345 7.345 0 0 1-1.799-.737.603.603 0 0 0-.64.03l-1.535 1.093a.132.132 0 0 1-.066.022.118.118 0 0 1-.084-.036L3.29 16.477a.119.119 0 0 1-.013-.149l1.08-1.514a.6.6 0 0 0 .025-.649 6.963 6.963 0 0 1-.772-1.833.602.602 0 0 0-.473-.435l-1.856-.316a.113.113 0 0 1-.097-.114V9.62c0-.057.04-.105.097-.114l1.83-.307a.592.592 0 0 0 .477-.438 7.02 7.02 0 0 1 .75-1.843.585.585 0 0 0-.03-.64L3.216 4.742a.12.12 0 0 1 .013-.149l1.307-1.307a.11.11 0 0 1 .083-.035c.027 0 .049.008.066.022L6.2 4.352a.6.6 0 0 0 .649.026 6.973 6.973 0 0 1 1.834-.772.6.6 0 0 0 .434-.474l.316-1.855a.114.114 0 0 1 .114-.097h1.847c.057 0 .105.04.114.097l.307 1.829c.04.232.21.421.439.478a7.148 7.148 0 0 1 1.882.772c.201.119.451.11.645-.026l1.513-1.088a.132.132 0 0 1 .066-.022c.017 0 .052.004.083.035l1.307 1.307a.12.12 0 0 1 .014.15l-1.084 1.522a.593.593 0 0 0-.026.645 7.01 7.01 0 0 1 .763 1.838.582.582 0 0 0 .474.434l1.842.312a.113.113 0 0 1 .097.114v1.846zm-9.323-5.457a4.535 4.535 0 0 0-4.531 4.532c0 2.5 2.03 4.531 4.531 4.531 2.5 0 4.532-2.031 4.532-4.531a4.535 4.535 0 0 0-4.532-4.532zm0 7.879a3.35 3.35 0 0 1-3.347-3.347 3.35 3.35 0 0 1 3.347-3.347 3.35 3.35 0 0 1 3.348 3.347 3.35 3.35 0 0 1-3.348 3.347z"/>
</symbol><symbol id="icon-user" viewBox="0 0 20 23">
    <title>
        Shape 1
    </title>
    <path d="M9.907 12.393h.156c1.425-.024 2.578-.514 3.43-1.453 1.872-2.067 1.561-5.61 1.527-5.948-.122-2.54-1.348-3.754-2.36-4.32C11.906.248 11.026.019 10.043 0H9.96c-.54 0-1.6.086-2.617.653-1.022.566-2.267 1.78-2.389 4.339-.034.338-.345 3.881 1.528 5.948.846.939 2 1.43 3.425 1.453zM6.253 5.111c0-.015.005-.029.005-.038.16-3.416 2.637-3.782 3.698-3.782H10.014c1.314.028 3.547.552 3.697 3.782 0 .014 0 .028.005.038.005.033.346 3.272-1.201 4.977-.613.676-1.43 1.01-2.506 1.019H9.96c-1.07-.01-1.892-.343-2.5-1.02C5.917 8.393 6.248 5.14 6.253 5.112zm13.73 13.159v-.014c0-.038-.005-.076-.005-.119-.03-.943-.093-3.148-2.204-3.853l-.049-.014c-2.194-.548-4.019-1.786-4.038-1.8a.665.665 0 0 0-.915.156c-.209.291-.136.691.16.896.084.057 2.02 1.376 4.443 1.986 1.133.395 1.26 1.581 1.294 2.667 0 .043 0 .081.005.119.005.429-.025 1.091-.102 1.472-.789.438-3.878 1.953-8.578 1.953-4.68 0-7.789-1.52-8.582-1.958-.078-.381-.112-1.043-.102-1.471 0-.039.005-.077.005-.12.034-1.086.16-2.272 1.294-2.667 2.423-.61 4.36-1.934 4.442-1.986a.634.634 0 0 0 .16-.895.665.665 0 0 0-.914-.157c-.02.014-1.834 1.252-4.038 1.8l-.049.014C.1 14.99.035 17.194.006 18.132c0 .043 0 .081-.005.119v.015c-.004.247-.01 1.519.249 2.157a.611.611 0 0 0 .253.3C.648 20.819 4.146 23 9.999 23c5.853 0 9.351-2.186 9.497-2.277a.638.638 0 0 0 .253-.3c.243-.633.238-1.905.233-2.153z"/>
</symbol></svg>